<svg version="1" xmlns="http://www.w3.org/2000/svg" width="148" height="148" viewBox="0 0 111.000000 111.000000"><path d="M54 1.9c0 .5-1.3 1.7-2.9 2.8-1.6 1-3 2.1-3 2.6 0 .4-.8 1.9-1.8 3.4-.9 1.4-1.8 3.3-1.9 4.1-.2.8-.6 1.8-1.1 2.1-1.1.8-1.5 2.6-1.7 8.1-.3 4.8.7 8.9 3 13.2.8 1.6 1.2 2.8.7 2.8-.4 0-.3.4.3.8 3 2.1 9.9 14.3 11 19.6 1.5 6.9-.3 15.3-3.9 19-1.9 2-1.9 2-1 .1 1.3-2.5 1.4-12.3.2-13.1-.5-.3-.7-1-.4-1.5.4-.5.1-.9-.5-.9s-.9-.4-.6-.8c.7-1.1-13.2-21.7-14.7-21.8-.6 0-2.1.4-3.2 1s-2.3.9-2.6.9c-1-.3.1 10.9 1.1 12.2.6.7.7 1.5.3 1.8-.3.4-.1 1.3.5 2 .7.8.9 1.7.5 2-.3.4-.1.7.6.7s1.1.5.9 1.2c-.3.7.2 1.9.9 2.8.7.8 1.3 1.8 1.3 2.2C36 71.5 47.6 83 49.9 83c1.1 0 2.2.9 2.6 2.1.6 1.8 1.3 2 4.2 1.6 1.9-.3 4.4-1.6 5.5-2.9 1.1-1.3 2.3-2.3 2.7-2.2.3 0 1.8-1.2 3.3-2.8 1.5-1.5 2.5-2.8 2.2-2.8-.3 0 .6-1.1 1.9-2.4 1.3-1.3 2.9-3.7 3.6-5.5.8-1.7 1.7-3.1 2.1-3.1.4 0 1.1-1.7 1.6-3.8.9-4.3 1.1-5.1 1.4-5.5.1-.1.3-1.1.5-2.1.2-1.1.6-3 .9-4.2.8-3.1-2.2-6.3-6.4-7l-3.5-.6v4.9c0 6.3-2.9 16.8-3.2 11.5-.2-4.5-1.2-8.3-2.3-9.7-.7-.8-.9-1.5-.6-1.5.4 0-.2-1.3-1.3-2.9-1.2-1.6-2.1-3.3-2.1-3.8 0-.6-.9-1.8-2-2.8-1.1-1-2-2.2-2-2.8 0-.5-.9-2.1-1.9-3.6-1.1-1.5-2.1-3.4-2.3-4.2-.2-.8-.6-1.6-1-1.9-2.1-1.6-.7-18 1.5-18 .6 0 .7-.3.4-.6-.3-.4-.2-1.5.3-2.4.7-1.3.6-2-.5-2.4-.8-.3-1.5-.1-1.5.3z"/><path d="M64.2 26.2c-.9 1.1-.6 2 1.4 4.3 1.3 1.6 3 3 3.7 3.1.7.2 2.6.6 4.2.9 4.6.9 9.9 2.6 11.3 3.8.6.5 1.2.6 1.2.1.1-.5.9.2 2 1.5 1.1 1.2 1.7 2.8 1.3 3.4-.6.9-.8 2.8-1.3 8.7-.3 3.3-4.2 14-5.1 14-.6 0-.8.4-.4.9.3.5-.1 1.6-1 2.4-1.3 1.3-1.1 1.9 1.1 5.2 6 8.9 7.4 8.9 11.7.2 2-4 4.3-9.9 5.3-13.2.9-3.3 1.9-6.7 2.1-7.5.3-.8.7-4.8 1-8.7.4-7.3-.6-10.3-3.6-10.3-.6 0-1.1-.4-1.1-.9s-1-1.2-2.2-1.6c-1.3-.4-2.5-.8-2.8-1-4.9-2.1-9.5-3.8-10.1-3.7-.4.1-2.2-.3-4-.9-6.5-1.8-13.4-2.2-14.7-.7zM33.8 26.5c-.2.2-1.5.6-2.8.9-7.6 1.4-19.6 7.1-21.6 10.1-1.3 2.1-1.2 7 .7 16.5.6 3 1.1 6 1.3 6.7.1.7.5 1.6.9 1.9.4.4.7 1.4.7 2.2 0 2.8 7.3 16.2 8.8 16.2 1.6 0 8.5-6.8 8.9-8.7.2-.7-.6-2.8-1.6-4.7-3.2-5.6-5.6-14.2-6.5-23.1-.4-3.4 1.8-6.5 4.6-6.5 1 0 1.8-.5 1.8-1 0-.6.3-.9.8-.8 1.8.4 6.1-1.5 6.7-3 1.5-3.6 1.3-6-.5-6.5-1.1-.3-2-.3-2.2-.2zM35.4 87.4c-2.4 2.5-4.3 5.1-4.1 5.8.4 2.1 13.5 12.8 15.6 12.8.5 0 1.6.7 2.4 1.5 2 2 9.7 3.2 9.7 1.5 0-.7.7-1 1.5-.6.9.3 1.8-.1 2.1-.9.4-.8 1.2-1.5 1.9-1.5 1.3 0 9.2-5.6 13.7-9.8 3-2.7 2.7-4.1-2.2-9.2-3.7-4-5.2-4.1-8.5-.8-1.7 1.7-4.9 4.1-7.1 5.4-4.1 2.4-4.3 2.4-7.8.7-2-.9-3.6-2-3.6-2.5 0-.4-.6-.8-1.2-.8-.7 0-2.8-1.4-4.6-3.1l-3.3-3.1-4.5 4.6z"/></svg>